<svg width="200" height="186" viewBox="0 0 200 186" fill="none" xmlns="http://www.w3.org/2000/svg">
<g opacity="0.1">
<path d="M194.021 70.8399C194.021 70.8399 194.72 73.8435 192.403 77.197C192.403 77.197 196.187 77.0814 198.007 79.5664C198.007 79.5664 197.401 75.9544 200 73.2093C200 73.2093 196.447 73.8451 194.021 70.8399Z" fill="white"/>
</g>
<path d="M2.29891 117.192C2.29891 117.192 3.29167 121.46 0 126.226C0 126.226 5.37785 126.062 7.96411 129.594C7.96411 129.594 7.10205 124.46 10.7967 120.559C10.7967 120.559 5.7473 121.463 2.29891 117.192Z" fill="white"/>
<g opacity="0.6">
<path d="M182.687 116.844C182.687 116.844 183.385 119.847 181.069 123.201C181.069 123.201 184.853 123.085 186.673 125.57C186.673 125.57 186.067 121.958 188.666 119.213C188.666 119.213 185.113 119.849 182.687 116.844Z" fill="white"/>
</g>
<g opacity="0.300003">
<g opacity="0.300003">
<path opacity="0.300003" d="M188.506 178.256C188.506 181.376 149.088 183.906 100.463 183.906C51.8386 183.906 12.4204 181.376 12.4204 178.256C12.4204 175.135 51.8386 172.605 100.463 172.605C149.088 172.605 188.506 175.135 188.506 178.256Z" fill="#000072"/>
</g>
</g>
<path d="M174.573 171.185C171.079 175.238 165.953 177.518 160.601 177.518H40.3248C34.9724 177.518 29.8465 175.238 26.3525 171.185C24.4222 168.945 22.9951 166.449 22.0353 163.896C22.0318 163.896 22.0317 163.896 22.0317 163.893C19.0123 155.881 20.5508 147.283 25.3676 144.191C33.4555 138.991 39.6922 145.345 39.6922 145.345C40.3823 143.723 41.3169 142.317 42.363 141.113C46.3027 136.56 51.824 134.827 51.824 134.827C48.8225 117.606 55.5229 102.004 55.5229 102.004C55.5229 102.004 72.033 114.485 100.463 114.485C128.893 114.485 145.403 102.004 145.403 102.004C145.403 102.004 152.103 117.606 149.102 134.827C149.102 134.827 157.941 137.603 161.234 145.345C161.234 145.345 167.47 138.991 175.558 144.191C181.91 148.272 182.561 161.926 174.573 171.185Z" fill="#B11313"/>
<g opacity="0.300003">
<g opacity="0.300003">
<path opacity="0.300003" d="M44.4866 161.221C45.601 150.429 39.6914 145.773 39.6914 145.773C40.3816 144.151 41.3162 142.745 42.3622 141.54C51.5285 152.508 44.4866 161.221 44.4866 161.221Z" fill="#000072"/>
</g>
</g>
<g opacity="0.300003">
<g opacity="0.300003">
<path opacity="0.300003" d="M156.471 161.221C155.357 150.429 161.266 145.773 161.266 145.773C160.576 144.151 159.642 142.745 158.596 141.54C149.429 152.508 156.471 161.221 156.471 161.221Z" fill="#000072"/>
</g>
</g>
<g opacity="0.300003">
<g opacity="0.300003">
<path opacity="0.300003" d="M157.406 170.28C156.55 170.066 155.667 169.993 154.79 170.089C153.54 170.226 151.389 170.439 148.235 170.676C143.487 171.032 139.34 167.463 139.016 162.711C138.877 160.67 139.182 159.085 139.293 158.595C138.053 163.896 135.764 168.781 134.368 171.46C127.282 171.755 118.306 171.996 107.208 172.066C106.609 150.613 119.067 130.497 119.067 130.497C99.9787 145.773 81.8884 130.497 81.8884 130.497C94.4842 152.862 93.8284 171.135 93.8284 171.135L95.9497 172.078C83.8292 172.027 74.1362 171.775 66.5875 171.46C65.1915 168.781 62.9021 163.897 61.6623 158.595C61.7774 159.105 62.103 160.799 61.92 162.959C61.526 167.609 57.3759 171.025 52.7241 170.676C49.5676 170.44 47.416 170.227 46.1655 170.089C45.2881 169.993 44.4052 170.066 43.5488 170.28C29.8634 173.688 22.2798 164.624 22.0356 164.324C22.9954 166.877 24.4225 169.373 26.3528 171.613C29.8468 175.666 34.9727 177.945 40.3251 177.945H100.478H160.63C165.983 177.945 171.108 175.666 174.602 171.613C176.533 169.373 177.96 166.877 178.92 164.324C178.675 164.624 171.092 173.688 157.406 170.28Z" fill="#000072"/>
</g>
</g>
<g opacity="0.300003">
<g opacity="0.300003">
<path opacity="0.300003" d="M61.6633 158.594C61.6399 158.49 61.625 158.434 61.625 158.434C61.6373 158.487 61.6508 158.54 61.6633 158.594Z" fill="#000072"/>
</g>
</g>
<g opacity="0.300003">
<g opacity="0.300003">
<path opacity="0.300003" d="M139.295 158.594C139.307 158.54 139.321 158.487 139.333 158.434C139.333 158.434 139.318 158.49 139.295 158.594Z" fill="#000072"/>
</g>
</g>
<path d="M100.451 176.698H160.604C165.65 176.698 170.399 174.548 173.634 170.799C177.812 165.955 179.873 159.247 179.011 153.293C178.507 149.807 177.004 147.027 174.889 145.667C167.736 141.067 162.351 146.418 162.125 146.648C161.834 146.945 161.414 147.078 161.004 146.999C160.595 146.922 160.252 146.645 160.089 146.263C157.056 139.13 148.814 136.472 148.731 136.446C148.134 136.259 147.769 135.658 147.876 135.042C150.263 121.357 146.32 108.553 144.811 104.358C140.29 107.314 124.736 116.161 100.466 116.161C76.1965 116.161 60.6416 107.314 56.1215 104.358C54.6116 108.553 50.6686 121.357 53.0557 135.042C53.1631 135.658 52.7976 136.259 52.2011 136.446C52.1196 136.472 43.8638 139.159 40.8429 146.263C40.68 146.645 40.3367 146.922 39.9279 146.999C39.5193 147.077 39.0984 146.945 38.8071 146.648C38.582 146.422 33.1503 141.096 26.043 145.667C23.9276 147.027 22.425 149.807 21.9207 153.293C21.0593 159.247 23.1197 165.955 27.2981 170.799C30.5326 174.548 35.2816 176.698 40.3276 176.698H100.451ZM160.604 179.191H40.3276C34.5563 179.191 29.1195 176.726 25.4112 172.427C20.775 167.053 18.4923 159.584 19.4542 152.936C20.0708 148.673 21.9321 145.347 24.6953 143.57C31.2715 139.341 36.8202 142.103 39.2585 143.823C42.3513 138.158 48.0897 135.38 50.4317 134.441C47.8236 117.476 54.1065 102.577 54.3807 101.939C54.5318 101.587 54.8363 101.324 55.2065 101.226C55.5772 101.128 55.9716 101.205 56.277 101.436C56.4384 101.558 72.8335 113.667 100.466 113.667C128.098 113.667 144.494 101.558 144.656 101.436C144.962 101.205 145.357 101.128 145.726 101.226C146.096 101.325 146.401 101.587 146.551 101.939C146.826 102.577 153.108 117.476 150.5 134.441C152.842 135.38 158.581 138.158 161.674 143.823C164.111 142.103 169.66 139.34 176.237 143.57C179 145.347 180.861 148.673 181.478 152.936C182.44 159.584 180.157 167.053 175.521 172.427C171.813 176.726 166.376 179.191 160.604 179.191Z" fill="#000072"/>
<path d="M40.4173 144.758C40.554 144.852 40.6177 144.903 40.7119 144.973C40.8013 145.039 40.8733 145.102 40.9549 145.168C41.1168 145.298 41.2536 145.436 41.4002 145.572C41.5503 145.706 41.674 145.853 41.8088 145.996C41.9445 146.138 42.0719 146.284 42.1914 146.435C42.6879 147.031 43.1054 147.672 43.4776 148.335C44.2237 149.66 44.7195 151.089 45.064 152.527C45.4 153.972 45.5241 155.439 45.5243 156.887C45.5269 157.611 45.4461 158.332 45.3969 159.045C45.2895 159.758 45.1722 160.464 45.0231 161.161C44.9946 161.294 44.8638 161.378 44.731 161.35C44.63 161.328 44.557 161.248 44.5401 161.152L44.5372 161.135C44.4151 160.435 44.3391 159.745 44.2473 159.062L44.0687 158.044C44.0033 157.708 43.979 157.368 43.8895 157.038C43.7221 156.377 43.6324 155.71 43.4211 155.071C43.3291 154.75 43.2569 154.424 43.1567 154.108L42.8354 153.17C42.3921 151.932 41.8505 150.748 41.198 149.654C41.0281 149.386 40.8691 149.108 40.6845 148.854L40.4176 148.464L40.1314 148.094C39.9499 147.838 39.7394 147.614 39.5424 147.383C39.4409 147.274 39.3401 147.155 39.2375 147.058C39.1883 147.008 39.1357 146.948 39.0892 146.905C39.0477 146.865 38.9798 146.801 38.9752 146.792L38.7063 146.252C38.4175 145.671 38.6535 144.967 39.2336 144.678C39.6266 144.482 40.078 144.528 40.4173 144.758Z" fill="#000072"/>
<path d="M161.927 146.792C161.922 146.801 161.854 146.865 161.813 146.905C161.767 146.948 161.714 147.008 161.665 147.058C161.562 147.155 161.461 147.274 161.36 147.383C161.163 147.614 160.952 147.838 160.771 148.094L160.485 148.464L160.218 148.854C160.033 149.108 159.874 149.386 159.704 149.654C159.052 150.748 158.51 151.932 158.067 153.17L157.746 154.109C157.645 154.425 157.573 154.75 157.481 155.071C157.27 155.71 157.18 156.378 157.013 157.038C156.923 157.368 156.899 157.708 156.834 158.044L156.655 159.062C156.563 159.745 156.487 160.435 156.365 161.135L156.362 161.152C156.339 161.286 156.211 161.375 156.077 161.352C155.976 161.334 155.9 161.256 155.879 161.161C155.73 160.464 155.613 159.758 155.505 159.045C155.456 158.332 155.375 157.611 155.378 156.887C155.378 155.439 155.502 153.972 155.838 152.527C156.183 151.089 156.679 149.66 157.425 148.335C157.797 147.672 158.214 147.031 158.711 146.435C158.83 146.284 158.958 146.138 159.093 145.996C159.228 145.853 159.352 145.706 159.502 145.572C159.649 145.436 159.785 145.299 159.947 145.168C160.029 145.102 160.101 145.039 160.19 144.973C160.285 144.903 160.348 144.852 160.485 144.758C161.02 144.393 161.75 144.532 162.115 145.067C162.362 145.43 162.379 145.883 162.197 146.25L161.927 146.792Z" fill="#000072"/>
<path d="M53.0645 135.11L53.166 136.106L53.2929 137.22C53.3375 137.599 53.397 137.98 53.4298 138.38C53.4663 138.779 53.488 139.192 53.4678 139.638L53.4677 139.64C53.4645 139.71 53.4052 139.765 53.3349 139.762C53.3098 139.76 53.2867 139.752 53.2676 139.738C52.9014 139.481 52.5864 139.185 52.3138 138.862C52.0345 138.542 51.8061 138.193 51.5832 137.835C51.3654 137.474 51.167 137.1 50.9944 136.707C50.9132 136.509 50.829 136.31 50.7636 136.1C50.7283 135.996 50.6965 135.889 50.668 135.779C50.6372 135.661 50.6165 135.574 50.5899 135.406C50.4817 134.725 50.9454 134.086 51.6255 133.978C52.3057 133.87 52.9447 134.334 53.0527 135.014C53.0562 135.036 53.059 135.058 53.0614 135.079L53.0645 135.11Z" fill="#000072"/>
<path d="M150.37 135.406C150.343 135.574 150.323 135.661 150.292 135.779C150.263 135.889 150.232 135.996 150.196 136.1C150.131 136.31 150.047 136.509 149.966 136.707C149.793 137.1 149.595 137.474 149.377 137.835C149.154 138.193 148.925 138.542 148.646 138.862C148.374 139.185 148.059 139.481 147.692 139.738C147.635 139.779 147.556 139.765 147.515 139.708C147.501 139.687 147.493 139.664 147.492 139.64L147.492 139.638C147.472 139.192 147.494 138.779 147.53 138.38C147.563 137.98 147.622 137.6 147.667 137.22L147.794 136.106L147.895 135.11L147.898 135.083C147.968 134.398 148.58 133.899 149.265 133.969C149.95 134.039 150.449 134.651 150.379 135.336C150.377 135.358 150.373 135.384 150.37 135.406Z" fill="#000072"/>
<path d="M59.1111 147.463C59.1111 147.463 53.4065 143.038 51.8274 135.255C51.8274 135.255 48.5456 133.596 46.2773 138.086C46.2773 138.086 48.8939 151.792 61.626 158.434C61.626 158.434 59.7862 151.378 59.1111 147.463Z" fill="#0096F2"/>
<path d="M47.5948 138.264C48.1087 140.357 50.8758 149.914 59.6826 155.831C59.1253 153.569 58.3867 150.443 57.9632 148.13C56.6421 146.984 52.3424 142.841 50.7627 136.216C50.0454 136.093 48.7539 136.237 47.5948 138.264ZM61.6249 159.68C61.4281 159.68 61.2305 159.633 61.0488 159.539C47.933 152.696 45.1639 138.903 45.0524 138.319C45.0008 138.049 45.0401 137.769 45.1644 137.523C46.5812 134.719 48.4338 133.924 49.7384 133.751C51.182 133.558 52.2694 134.082 52.3886 134.142C52.7291 134.315 52.972 134.633 53.0478 135.007C54.5101 142.214 59.8223 146.437 59.8757 146.479C60.1195 146.67 60.2857 146.946 60.3382 147.251C60.9966 151.068 62.8126 158.049 62.8309 158.118C62.9551 158.595 62.7868 159.101 62.4014 159.408C62.1762 159.588 61.9015 159.68 61.6249 159.68Z" fill="#000072"/>
<path d="M141.85 147.463C141.85 147.463 147.554 143.038 149.133 135.255C149.133 135.255 152.415 133.596 154.684 138.086C154.684 138.086 152.067 151.792 139.335 158.434C139.335 158.434 141.175 151.378 141.85 147.463Z" fill="#0096F2"/>
<path d="M142.995 148.13C142.571 150.444 141.833 153.569 141.275 155.831C150.082 149.914 152.849 140.358 153.363 138.263C152.661 137.033 151.831 136.347 150.892 136.222C150.629 136.187 150.388 136.202 150.191 136.233C148.609 142.848 144.315 146.985 142.995 148.13ZM139.333 159.68C139.057 159.68 138.782 159.588 138.557 159.408C138.171 159.101 138.003 158.595 138.127 158.118C138.145 158.049 139.962 151.068 140.62 147.251C140.673 146.945 140.838 146.67 141.082 146.479C141.136 146.437 146.448 142.214 147.91 135.007C147.986 134.633 148.229 134.315 148.57 134.143C148.689 134.082 149.776 133.558 151.22 133.751C152.524 133.924 154.377 134.719 155.794 137.523C155.918 137.769 155.957 138.049 155.906 138.319C155.794 138.903 153.025 152.696 139.909 159.539C139.728 159.633 139.53 159.68 139.333 159.68Z" fill="#000072"/>
<path d="M76.2979 115.622C76.2979 115.622 78.4397 121.695 77.8234 130.557L84.8805 136.699C84.8805 136.699 86.7248 125.993 83.5836 117.102L76.2979 115.622Z" fill="#0096F2"/>
<path d="M79.1074 130.02L83.933 134.22C84.2598 130.804 84.5384 124.106 82.6338 118.18L78.0506 117.249C78.6429 119.714 79.4334 124.25 79.1074 130.02ZM84.8822 137.945C84.5861 137.945 84.2944 137.84 84.0641 137.639L77.0071 131.497C76.7123 131.24 76.5549 130.86 76.5819 130.47C77.1708 122.002 75.1443 116.093 75.1238 116.035C74.9757 115.611 75.0659 115.141 75.3606 114.803C75.6555 114.465 76.1092 114.313 76.5475 114.4L83.8331 115.88C84.2623 115.967 84.6142 116.273 84.76 116.686C87.9728 125.78 86.1875 136.46 86.1102 136.91C86.0336 137.354 85.724 137.722 85.2999 137.873C85.1638 137.921 85.0224 137.945 84.8822 137.945Z" fill="#000072"/>
<path d="M124.661 115.622C124.661 115.622 122.519 121.695 123.135 130.557L116.078 136.699C116.078 136.699 114.234 125.993 117.375 117.102L124.661 115.622Z" fill="#0096F2"/>
<path d="M118.325 118.18C116.417 124.117 116.697 130.809 117.025 134.221L121.852 130.02C121.526 124.25 122.316 119.714 122.909 117.249L118.325 118.18ZM116.077 137.945C115.937 137.945 115.796 137.921 115.659 137.873C115.235 137.722 114.926 137.354 114.849 136.91C114.772 136.46 112.986 125.78 116.199 116.686C116.345 116.273 116.697 115.967 117.126 115.88L124.412 114.4C124.852 114.309 125.305 114.465 125.6 114.803C125.894 115.142 125.984 115.612 125.835 116.035C125.803 116.129 123.79 122.028 124.377 130.47C124.404 130.86 124.247 131.24 123.952 131.497L116.895 137.639C116.665 137.84 116.373 137.945 116.077 137.945Z" fill="#000072"/>
<path d="M93.4409 174.05C91.6652 182.774 81.5427 186.765 74.4289 181.418C68.8609 177.236 62.7464 167.671 58.9685 146.696C58.609 144.686 58.2675 142.568 57.9512 140.342L60.356 138.062L76.2982 122.938C76.2982 122.938 92.0031 147.261 93.7429 165.906V165.909C94.0161 168.797 93.9514 171.547 93.4409 174.05Z" fill="#B11313"/>
<g opacity="0.300003">
<g opacity="0.300003">
<path opacity="0.300003" d="M93.4415 174.052C91.6657 182.776 81.5432 186.767 74.4295 181.42C68.8614 177.238 62.7469 167.673 58.969 146.698C53.6525 143.494 51.8264 135.256 51.8264 135.256C49.5331 124.317 52.1787 114.234 52.1787 114.234C51.6753 127.549 56.9581 133.9 59.137 135.939C59.7441 136.507 60.1684 137.24 60.3533 138.051C60.3544 138.055 60.3554 138.06 60.3565 138.064C64.2495 155.296 70.7701 176.289 80.2312 177.792C89.3652 179.241 93.3013 167.339 93.7434 165.911C94.0166 168.799 93.9519 171.549 93.4415 174.052Z" fill="#000072"/>
</g>
</g>
<path d="M77.664 121.776C79.4792 123.754 80.9144 125.96 82.2159 128.239C82.8617 129.381 83.4508 130.553 84.0363 131.726C84.6215 132.9 85.1948 134.08 85.7535 135.267C87.9909 140.015 90.028 144.869 91.7201 149.872C93.4138 154.868 94.7777 160.03 95.275 165.405C95.5142 168.088 95.5289 170.833 95.0731 173.582C94.9744 174.256 94.8303 174.981 94.6084 175.678C94.4072 176.38 94.1216 177.058 93.8125 177.722C93.1673 179.039 92.3076 180.254 91.2824 181.305C89.2108 183.385 86.4736 184.789 83.5674 185.201C82.1182 185.428 80.6297 185.378 79.1853 185.122C77.7419 184.848 76.3481 184.329 75.0738 183.615C74.4506 183.247 73.8229 182.841 73.2813 182.395L72.469 181.728C72.1948 181.509 71.9592 181.255 71.703 181.019C71.4556 180.776 71.1922 180.546 70.9591 180.292L70.2641 179.526C69.7844 179.027 69.3866 178.472 68.9561 177.939C67.2926 175.769 65.9657 173.409 64.8009 171.003C63.6171 168.599 62.7121 166.099 61.8356 163.6C61.0222 161.082 60.2812 158.546 59.6717 155.985C59.3705 154.704 59.047 153.427 58.8012 152.137C58.548 150.848 58.2447 149.568 58.0606 148.268C57.653 145.675 57.4617 143.046 57.6859 140.38C57.6986 140.229 57.831 140.117 57.9817 140.13C58.0867 140.139 58.1728 140.206 58.2112 140.297L58.2144 140.305C58.7325 141.544 59.1245 142.794 59.4625 144.051C59.7953 145.309 60.1402 146.559 60.4016 147.824C60.6516 149.092 60.9445 150.347 61.2203 151.607C61.4822 152.871 61.8197 154.114 62.1345 155.362C62.7712 157.857 63.5332 160.31 64.3592 162.734C65.245 165.13 66.1551 167.522 67.3124 169.774C68.446 172.034 69.739 174.203 71.2584 176.157C71.6508 176.632 72.0148 177.138 72.4441 177.572L73.0658 178.248C73.2737 178.473 73.5052 178.667 73.723 178.879C73.9478 179.081 74.156 179.307 74.3935 179.491L75.0951 180.057C75.5601 180.436 76.0351 180.73 76.5312 181.023C77.5329 181.571 78.612 181.962 79.7276 182.166C80.8442 182.351 81.9934 182.386 83.1157 182.198C85.3683 181.865 87.4873 180.744 89.079 179.132C89.8721 178.321 90.5377 177.386 91.041 176.368C91.2794 175.852 91.5065 175.329 91.663 174.778C91.8389 174.235 91.9512 173.679 92.042 173.067C92.446 170.676 92.45 168.172 92.2321 165.675C92.0114 163.175 91.5676 160.672 90.993 158.19C90.4219 155.707 89.7081 153.245 88.9137 150.805C87.3212 145.924 85.3752 141.138 83.224 136.444C82.687 135.27 82.1351 134.102 81.5711 132.94C81.0101 131.776 80.4193 130.628 79.872 129.456C78.7668 127.118 77.7257 124.742 76.9042 122.23L76.9016 122.222C76.8239 121.985 76.9533 121.729 77.1905 121.652C77.3642 121.595 77.5478 121.65 77.664 121.776Z" fill="#000072"/>
<path d="M62.4564 162.467C62.1209 162.467 61.7861 162.332 61.5406 162.066C61.074 161.56 61.1049 160.773 61.6099 160.306C62.0723 159.878 73.1255 149.819 90.0485 148.554C90.7328 148.499 91.3326 149.017 91.384 149.704C91.4353 150.39 90.9205 150.989 90.2342 151.04C74.2091 152.238 63.4084 162.038 63.3012 162.137C63.0616 162.358 62.7585 162.467 62.4564 162.467Z" fill="#000072"/>
<path d="M107.519 174.05C109.294 182.774 119.417 186.765 126.531 181.418C132.099 177.236 138.213 167.671 141.991 146.696C142.351 144.686 142.692 142.568 143.009 140.342L140.604 138.062L124.662 122.938C124.662 122.938 108.957 147.261 107.217 165.906V165.909C106.944 168.797 107.008 171.547 107.519 174.05Z" fill="#B11313"/>
<g opacity="0.300003">
<g opacity="0.300003">
<path opacity="0.300003" d="M107.518 174.052C109.294 182.776 119.416 186.767 126.53 181.42C132.098 177.238 138.213 167.673 141.991 146.698C147.307 143.494 149.133 135.256 149.133 135.256C151.427 124.317 148.781 114.234 148.781 114.234C149.284 127.549 144.002 133.9 141.823 135.939C141.216 136.507 140.791 137.24 140.606 138.051C140.605 138.055 140.604 138.06 140.603 138.064C136.71 155.296 130.19 176.289 120.728 177.792C111.595 179.241 107.658 167.339 107.216 165.911C106.943 168.799 107.008 171.549 107.518 174.052Z" fill="#000072"/>
</g>
</g>
<path d="M124.055 122.23C123.233 124.742 122.192 127.118 121.087 129.456C120.54 130.628 119.949 131.776 119.388 132.94C118.824 134.102 118.272 135.27 117.735 136.444C115.584 141.138 113.638 145.924 112.045 150.805C111.251 153.245 110.537 155.707 109.966 158.19C109.391 160.672 108.948 163.175 108.727 165.675C108.509 168.172 108.513 170.676 108.917 173.067C109.008 173.679 109.12 174.235 109.296 174.779C109.452 175.329 109.68 175.852 109.918 176.368C110.421 177.386 111.087 178.321 111.88 179.131C113.472 180.744 115.591 181.865 117.843 182.198C118.966 182.386 120.115 182.351 121.231 182.165C122.347 181.962 123.426 181.571 124.428 181.023C124.924 180.73 125.399 180.436 125.864 180.057L126.565 179.491C126.803 179.307 127.011 179.081 127.236 178.879C127.454 178.667 127.685 178.473 127.893 178.248L128.515 177.573C128.944 177.138 129.308 176.632 129.701 176.157C131.22 174.203 132.513 172.034 133.647 169.774C134.804 167.522 135.714 165.13 136.6 162.734C137.426 160.31 138.188 157.857 138.825 155.362C139.139 154.114 139.477 152.871 139.739 151.607C140.015 150.347 140.307 149.092 140.557 147.824C140.819 146.559 141.164 145.309 141.497 144.051C141.835 142.794 142.226 141.544 142.745 140.305L142.748 140.297C142.806 140.158 142.966 140.092 143.106 140.15C143.203 140.191 143.265 140.282 143.273 140.38C143.497 143.046 143.306 145.675 142.898 148.268C142.714 149.568 142.411 150.848 142.158 152.137C141.912 153.428 141.589 154.704 141.287 155.985C140.678 158.546 139.937 161.082 139.124 163.6C138.247 166.099 137.342 168.599 136.158 171.003C134.993 173.409 133.666 175.769 132.003 177.939C131.572 178.472 131.175 179.026 130.695 179.526L130 180.292C129.767 180.546 129.503 180.776 129.256 181.019C129 181.255 128.764 181.509 128.49 181.728L127.678 182.394C127.136 182.841 126.508 183.247 125.885 183.615C124.611 184.329 123.217 184.848 121.774 185.122C120.329 185.378 118.841 185.428 117.392 185.201C114.485 184.789 111.748 183.385 109.677 181.305C108.651 180.254 107.792 179.039 107.146 177.722C106.837 177.058 106.552 176.38 106.351 175.678C106.129 174.981 105.984 174.256 105.886 173.582C105.43 170.833 105.445 168.088 105.684 165.405C106.181 160.03 107.545 154.868 109.239 149.872C110.931 144.869 112.968 140.015 115.205 135.267C115.764 134.08 116.337 132.9 116.923 131.726C117.508 130.553 118.097 129.381 118.743 128.239C120.045 125.96 121.48 123.754 123.295 121.776C123.464 121.592 123.75 121.58 123.934 121.748C124.068 121.872 124.111 122.059 124.058 122.222L124.055 122.23Z" fill="#000072"/>
<path d="M138.503 162.467C138.2 162.467 137.897 162.358 137.658 162.136C137.55 162.037 126.75 152.238 110.725 151.039C110.038 150.988 109.524 150.39 109.575 149.703C109.626 149.017 110.225 148.498 110.91 148.553C127.833 149.819 138.887 159.877 139.349 160.305C139.854 160.772 139.885 161.561 139.418 162.066C139.172 162.332 138.838 162.467 138.503 162.467Z" fill="#000072"/>
<path d="M100.497 110.897C133.088 110.897 146.028 96.6552 146.028 96.6552C146.028 96.6552 146.571 97.8815 146.835 99.6244C147.273 102.51 146.048 105.405 143.715 107.158C138.587 111.012 125.529 118.355 100.481 118.355C75.4316 118.355 62.374 111.012 57.2461 107.158C54.9132 105.405 53.6882 102.51 54.1258 99.6244C54.3901 97.8815 54.9331 96.6552 54.9331 96.6552C54.9331 96.6552 67.8733 110.897 100.464 110.897" fill="#751313"/>
<g opacity="0.300003">
<g opacity="0.300003">
<path opacity="0.300003" d="M146.716 98.9564C146.296 100.766 145.246 102.411 143.714 103.562C138.586 107.416 125.529 114.76 100.48 114.76C75.4311 114.76 62.3735 107.416 57.2455 103.562C55.7136 102.411 54.6637 100.766 54.2444 98.9564C54.2011 99.1689 54.1606 99.3917 54.1253 99.6244C53.6876 102.51 54.9127 105.405 57.2455 107.158C62.3735 111.012 75.4311 118.355 100.48 118.355C125.529 118.355 138.586 111.012 143.714 107.158C146.047 105.405 147.272 102.51 146.835 99.6244C146.799 99.3917 146.759 99.1689 146.716 98.9564Z" fill="#000072"/>
</g>
</g>
<path d="M100.479 119.602C75.464 119.602 62.1853 112.429 56.4966 108.154C53.769 106.104 52.388 102.764 52.8927 99.4371C53.1786 97.5503 53.7674 96.2061 53.7924 96.1499C53.9631 95.7643 54.3168 95.4911 54.7328 95.424C55.1481 95.3559 55.5704 95.5041 55.854 95.816C55.979 95.9525 68.8973 109.65 100.463 109.65V112.143C73.503 112.143 59.8274 102.63 55.5247 98.9251C55.4626 99.1984 55.4045 99.4954 55.3565 99.8108C54.9899 102.23 56.0002 104.663 57.9936 106.161C63.4338 110.249 76.1877 117.108 100.479 117.108C124.771 117.108 137.525 110.249 142.965 106.161C144.958 104.663 145.969 102.23 145.602 99.8108C145.554 99.4954 145.496 99.1984 145.434 98.9251C141.131 102.63 127.456 112.143 100.496 112.143V109.65C132.169 109.65 144.979 95.9543 145.105 95.816C145.388 95.5041 145.81 95.3566 146.226 95.424C146.642 95.4911 146.996 95.7643 147.166 96.1499C147.191 96.2061 147.78 97.5503 148.066 99.4371C148.571 102.764 147.19 106.105 144.462 108.154C138.774 112.429 125.495 119.602 100.479 119.602Z" fill="#000072"/>
<g opacity="0.3">
<path d="M1.96426 16.8517C1.96426 16.8517 2.66284 19.8552 0.34668 23.2087C0.34668 23.2087 4.13067 23.0931 5.95048 25.5781C5.95048 25.5781 5.34385 21.9662 7.94355 19.2211C7.94355 19.2211 4.39063 19.8568 1.96426 16.8517Z" fill="white"/>
</g>
<path d="M54.96 107.194L75.0543 152.953" stroke="#000072" stroke-miterlimit="10"/>
<path d="M125.033 152.953L145.554 107.194" stroke="#000072" stroke-miterlimit="10"/>
<path fill-rule="evenodd" clip-rule="evenodd" d="M99.0025 125.882C98.9942 125.992 98.9273 126.091 98.8828 126.199C98.8397 126.304 98.8002 126.416 98.763 126.527C98.6659 126.814 98.5751 127.097 98.5833 127.469C98.9148 127.512 99.3325 127.48 99.6314 127.438C99.7948 127.51 99.8997 127.623 100.051 127.704C100.022 127.565 100.158 127.539 100.275 127.499C100.223 127.559 100.143 127.6 100.17 127.714C100.239 127.746 100.25 127.663 100.305 127.653C100.382 127.713 100.48 127.71 100.56 127.653C100.617 127.662 100.601 127.72 100.664 127.725C100.753 127.645 100.626 127.559 100.59 127.499C100.701 127.539 100.827 127.569 100.814 127.694C100.935 127.644 101.082 127.522 101.203 127.438C101.515 127.483 101.914 127.504 102.281 127.479C102.269 126.856 102.048 126.376 101.832 125.892C101.892 125.887 101.892 125.94 101.907 125.963C102.13 126.293 102.328 126.669 102.491 127.069C102.515 127.127 102.555 127.206 102.581 127.284C102.604 127.353 102.653 127.471 102.641 127.51C102.615 127.594 102.412 127.622 102.371 127.694C102.247 127.593 101.888 127.622 101.548 127.612C101.452 127.609 101.323 127.59 101.263 127.602C101.133 127.627 101.076 127.758 101.009 127.827C101.193 127.836 101.339 127.713 101.503 127.704C101.607 127.698 101.759 127.752 101.892 127.776C102.278 127.846 102.709 127.905 103.06 127.981C103.081 127.157 102.772 126.471 102.356 125.912C102.769 126.302 103.048 126.758 103.255 127.295C103.29 127.387 103.321 127.476 103.345 127.571C103.377 127.705 103.379 127.871 103.479 127.97C103.355 128.063 103.206 128.138 103.075 128.226C102.707 128.076 101.996 127.86 101.398 127.899C101.255 127.908 101.128 127.957 101.024 128.022C101.207 128.072 101.333 128.076 101.578 128.073C101.639 128.072 101.727 128.055 101.772 128.063C101.824 128.072 101.908 128.145 101.982 128.196C102.414 128.491 102.801 128.708 103.315 128.943C103.475 129.017 103.565 129.091 103.749 128.994C103.779 129.966 103.402 130.683 102.94 131.339C102.886 131.415 102.852 131.504 102.761 131.564C103.108 131.004 103.374 130.338 103.374 129.558C103.374 129.476 103.397 129.374 103.374 129.302C103.342 129.199 103.106 129.091 102.97 129.005C102.583 128.76 102.276 128.589 101.847 128.359C101.763 128.315 101.692 128.254 101.623 128.237C101.55 128.219 101.435 128.215 101.353 128.206C101.251 128.195 101.153 128.192 101.069 128.185C101.234 128.307 101.497 128.458 101.727 128.575C101.77 128.6 101.814 128.565 101.862 128.564C101.917 129.706 101.793 130.824 101.323 131.657C101.211 131.855 101.087 132.051 100.889 132.199C101.528 131.411 101.576 130.058 101.443 128.871C101.579 128.791 101.52 128.724 101.398 128.626C101.265 128.518 101.029 128.361 100.874 128.308C100.863 128.362 100.89 128.414 100.919 128.462C100.948 128.51 101.013 128.552 101.024 128.595C101.046 128.687 100.992 128.888 100.964 128.994C100.871 129.348 100.676 129.735 100.5 129.998C100.438 129.992 100.481 129.915 100.44 129.895C100.373 129.898 100.414 129.973 100.38 129.998C100.174 129.757 99.9978 129.359 99.9008 128.994C99.8663 128.864 99.8124 128.707 99.841 128.595C99.8637 128.506 100.004 128.425 99.9907 128.319C99.8537 128.34 99.7259 128.433 99.6164 128.513C99.5074 128.593 99.3941 128.678 99.317 128.769C99.3262 128.814 99.39 128.821 99.4068 128.861C99.3086 130.061 99.3118 131.412 99.9757 132.189C99.9057 132.182 99.8732 132.122 99.841 132.087C99.2229 131.41 99.0568 130.368 98.9876 129.291C98.9723 129.053 98.9565 128.821 99.0025 128.585C99.0153 128.535 99.0923 128.609 99.1373 128.575C99.3736 128.453 99.5865 128.315 99.811 128.185C99.6155 128.206 99.403 128.199 99.2271 128.247C99.0745 128.288 98.9075 128.402 98.763 128.482C98.3234 128.727 97.8605 128.993 97.4903 129.271C97.4148 130.185 97.7208 130.921 98.0892 131.564C97.5577 130.856 97.0645 130.068 97.116 128.994C97.3185 129.126 97.6269 128.912 97.7898 128.831C98.2431 128.604 98.7272 128.311 99.0775 128.063C99.331 128.088 99.6288 128.067 99.841 128.032C99.5765 127.801 98.8984 127.917 98.4935 128.001C98.2218 128.058 97.9683 128.139 97.8047 128.226C97.6493 128.155 97.5304 128.059 97.3855 127.981C97.4915 127.799 97.5141 127.493 97.5952 127.284C97.7931 126.776 98.1018 126.326 98.4784 125.912C98.4685 125.991 98.3889 126.059 98.3438 126.127C98.0156 126.626 97.7996 127.245 97.7898 127.97C98.1358 127.917 98.5488 127.851 98.9576 127.776C99.0909 127.751 99.2289 127.702 99.3319 127.704C99.4983 127.708 99.6547 127.826 99.841 127.827C99.7968 127.731 99.7123 127.662 99.6164 127.602C99.308 127.626 98.9636 127.588 98.6882 127.622C98.66 127.626 98.6232 127.637 98.5833 127.653C98.5869 127.652 98.4943 127.694 98.5085 127.694C98.4462 127.694 98.2941 127.546 98.224 127.53C98.3679 126.901 98.6926 126.397 99.0025 125.882Z" fill="#000072"/>
<path fill-rule="evenodd" clip-rule="evenodd" d="M100.48 119.601V137.281V119.601Z" fill="#000072"/>
<path d="M100.48 119.601V137.281" stroke="#000072" stroke-miterlimit="10"/>
<path d="M94.966 119.484C94.966 119.484 95.9375 133.967 94.5146 136.531" stroke="#000072" stroke-miterlimit="10"/>
<path d="M90.5991 119.204C90.5991 119.204 92.79 125.905 89.624 134.957" stroke="#000072" stroke-miterlimit="10"/>
<path d="M105.518 119.602C105.518 119.602 104.502 132.435 105.971 136.805" stroke="#000072" stroke-miterlimit="10"/>
<path d="M110.7 119.204C110.7 119.204 108.377 131.93 111.826 134.957" stroke="#000072" stroke-miterlimit="10"/>
<path d="M86.0596 121.75C86.0596 121.75 88.2472 119.661 91.1203 121.75C91.1203 121.75 92.6178 119.677 95.1081 122.035C95.1081 122.035 96.4662 119.453 100.464 121.75C100.464 121.75 102.151 119.592 105.178 121.75C105.178 121.75 107.556 119.354 110.342 121.631C110.342 121.631 112.825 118.927 114.975 121.342" stroke="#000072" stroke-miterlimit="10"/>
<path d="M100.163 125.065C100.085 125.01 100.007 124.957 99.9302 124.908C97.2074 123.162 95.2317 125.113 95.2317 125.113C93.2119 123.016 91.3389 125.113 91.3389 125.113C88.1992 121.449 86.5039 125.113 86.5039 125.113" stroke="#000072" stroke-miterlimit="10"/>
<path d="M100.084 125.105C100.084 125.105 102.566 123.114 105.177 125.105C105.177 125.105 107.714 122.641 109.935 125.215C109.935 125.215 113.231 122.677 114.461 125.164" stroke="#000072" stroke-miterlimit="10"/>
<path d="M86.5039 131.234C86.5039 131.234 88.5184 127.914 90.6385 131.516C90.6385 131.516 94.4407 128.888 95.2498 132.558C95.2498 132.558 98.3982 130.956 100.599 133.592C100.599 133.592 102.93 130.864 105.63 132.945C105.63 132.945 107.433 128.773 110.485 131.991C110.485 131.991 112.366 128.512 114.462 130.497" stroke="#000072" stroke-miterlimit="10"/>
<path d="M86.2979 133.221C86.2979 133.221 88.9212 130.559 90.0684 133.594C90.0684 133.594 93.8471 131.885 94.9021 134.958C94.9021 134.958 98.8067 132.91 100.432 136.188C100.432 136.188 102.743 134.01 105.52 135.489C105.52 135.489 108.072 131.648 111.027 133.916C111.027 133.916 113.129 130.323 114.387 132.56" stroke="#000072" stroke-miterlimit="10"/>
<path d="M63.3018 162.136C63.3018 162.136 74.9289 149.91 89.6257 151.09L92.9665 161.355C92.9665 161.355 89.3554 176.596 66.5901 171.46L63.3018 162.136Z" fill="#000072"/>
<path d="M63.3018 162.136C63.3018 162.136 74.9289 149.909 89.6257 151.09L92.9665 161.355C92.9665 161.355 89.3554 176.596 66.5901 171.46L63.3018 162.136Z" stroke="#000072" stroke-miterlimit="10"/>
<path d="M107.457 163.878L110.881 149.315L127.014 154.222L136.627 159.682V163.878L134.37 171.461C134.37 171.461 118.218 176.78 107.457 163.878Z" fill="#000072"/>
<path d="M107.457 163.878L110.881 149.315L127.014 154.222L136.627 159.682V163.878L134.37 171.461C134.37 171.461 118.218 176.78 107.457 163.878Z" stroke="#000072" stroke-miterlimit="10"/>
<path d="M25.8096 144.483L38.23 176.699" stroke="#000072" stroke-miterlimit="10"/>
<path d="M22.5869 148.551C22.5869 148.551 24.7331 163.463 34.1015 176.457" stroke="#000072" stroke-miterlimit="10"/>
<path d="M30.8525 143.243C30.8525 143.243 40.5536 159.718 42.0524 176.959" stroke="#000072" stroke-miterlimit="10"/>
<path d="M37.0771 144.483C37.0771 144.483 42.9608 156.216 46.2779 176.699" stroke="#000072" stroke-miterlimit="10"/>
<path d="M21.2686 155.508C21.2686 155.508 21.2931 152.208 23.6378 153.488C23.6378 153.488 24.5103 147.717 28.343 151.381C28.343 151.381 28.4882 145.523 33.8444 149.035C33.8444 149.035 35.3721 144.736 38.5804 148.549C38.5804 148.549 40.1716 147.67 41.1955 149.653" stroke="#000072" stroke-miterlimit="10"/>
<path d="M22.959 150.566C22.959 150.566 23.7813 146.299 27.0548 147.713C27.0548 147.713 27.7029 144.205 32.0197 145.372C32.0197 145.372 32.6549 143.078 37.7771 146.01" stroke="#000072" stroke-miterlimit="10"/>
<path d="M21.7256 157.264C21.7256 157.264 21.9063 153.957 24.407 156.258C24.407 156.258 25.1948 150.533 29.5637 154.222C29.5637 154.222 29.6806 148.616 34.7644 151.784C34.7644 151.784 36.6349 148.654 39.8948 151.381C39.8948 151.381 40.477 149.752 42.1037 151.381" stroke="#000072" stroke-miterlimit="10"/>
<path d="M21.7256 160.102C21.7256 160.102 22.7405 156.922 25.5173 159.682C25.5173 159.682 27.2166 154.49 30.8519 158.004C30.8519 158.004 32.3164 151.074 36.7757 155.833C36.7757 155.833 37.4692 151.309 41.0158 154.656C41.0158 154.656 41.285 151.878 43.1548 154.109" stroke="#000072" stroke-miterlimit="10"/>
<path d="M22.5869 162.504C22.5869 162.504 23.5312 159.885 26.2827 161.765C26.2827 161.765 29.2742 157.631 32.0196 160.592C32.0196 160.592 34.9657 156.142 37.777 159.524C37.777 159.524 39.2392 155.349 42.1304 158.255C42.1304 158.255 43.2018 156.699 44.0672 158.045" stroke="#000072" stroke-miterlimit="10"/>
<path d="M23.582 165.586C23.582 165.586 25.2451 162.733 27.3714 164.437C27.3714 164.437 29.2346 161.185 33.2946 163.894C33.2946 163.894 35.2267 159.492 39.2023 162.816C39.2023 162.816 40.64 159.071 43.1568 162.467C43.1568 162.467 43.1663 158.832 44.9284 160.591" stroke="#000072" stroke-miterlimit="10"/>
<path d="M24.8037 169.184V168.268C24.8037 168.268 25.9178 164.931 28.5855 167.108C28.5855 167.108 31.3399 163.95 34.2544 166.387C34.2544 166.387 37.2662 162.443 39.9906 165.587C39.9906 165.587 41.631 162.14 44.0679 165.574" stroke="#000072" stroke-miterlimit="10"/>
<path d="M26.8799 170.301C26.8799 170.301 26.9831 168.525 29.6259 169.182C29.6259 169.182 32.4587 167.035 35.2753 169.036C35.2753 169.036 37.2626 165.51 40.6351 168.183C40.6351 168.183 42.9704 165.435 44.5684 167.762" stroke="#000072" stroke-miterlimit="10"/>
<path d="M28.3457 172.518C28.3457 172.518 29.3666 170.964 31.2347 172.066C31.2347 172.066 33.6601 169.712 36.2931 171.671C36.2931 171.671 38.1247 168.894 41.2059 170.892C41.2059 170.892 43.1596 168.36 45.1099 170.302" stroke="#000072" stroke-miterlimit="10"/>
<path d="M30.3701 174.092C30.3701 174.092 30.6905 172.447 32.4429 174.02C32.4429 174.02 34.4898 172.705 37.078 174.092C37.078 174.092 39.9008 172.322 41.6784 173.715C41.6784 173.715 43.9894 171.979 45.5251 173.636" stroke="#000072" stroke-miterlimit="10"/>
<path d="M33.3281 175.241C33.3281 175.241 34.6894 173.811 37.778 175.523C37.778 175.523 39.4732 174.488 41.026 174.853C41.2477 174.905 41.4667 174.986 41.6773 175.103" stroke="#000072" stroke-miterlimit="10"/>
<path d="M41.9092 175.533C41.9092 175.533 43.4796 174.163 46.1473 175.107" stroke="#000072" stroke-miterlimit="10"/>
<path d="M44.928 160.108C44.4594 161.173 46.2777 177.938 46.2777 177.938H68.9574L68.4745 176.697L63.3015 166.825L60.0636 157.553C52.7262 156.512 45.524 139.323 45.524 139.323L40.417 144.756L41.6773 147.711L44.0683 153.239L44.928 160.108Z" fill="#000072"/>
<path d="M174.215 143.704L163.113 176.699" stroke="#000072" stroke-miterlimit="10"/>
<path d="M177.164 147.73C177.164 147.73 175.19 168.785 165.925 177.203" stroke="#000072" stroke-miterlimit="10"/>
<path d="M169.939 143.501C169.939 143.501 162.42 161.566 158.85 176.898" stroke="#000072" stroke-miterlimit="10"/>
<path d="M163.689 145.086C163.689 145.086 158.217 155.351 155.378 178.809" stroke="#000072" stroke-miterlimit="10"/>
<path d="M179.011 153.293C179.011 153.293 178.412 150.374 176.515 152.339C176.515 152.339 175.723 147.122 171.981 150.343C171.981 150.343 170.925 145.896 167.641 149.314C167.641 149.314 165.085 145.064 161.902 149.314C161.902 149.314 161.244 148.238 159.704 149.653" stroke="#000072" stroke-miterlimit="10"/>
<path d="M179.201 156.246C179.201 156.246 178.499 153.382 175.911 155.507C175.911 155.507 174.406 151.919 170.675 154.221C170.675 154.221 169.8 150.586 165.923 152.953C165.923 152.953 164.777 150.186 160.916 152.153C160.916 152.153 160.012 150.403 158.395 152.307" stroke="#000072" stroke-miterlimit="10"/>
<path d="M179.203 159.68C179.203 159.68 177.725 156.596 175.2 158.593C175.2 158.593 172.84 155.249 169.43 157.92C169.43 157.92 168.14 154.66 164.862 156.886C164.862 156.886 163.184 153.291 159.703 155.831C159.703 155.831 159.065 153.936 156.534 155.507" stroke="#000072" stroke-miterlimit="10"/>
<path d="M178.593 162.467C178.593 162.467 177.722 159.418 174.275 161.947C174.275 161.947 171.926 158.032 168.419 160.93C168.419 160.93 166.903 156.942 163.689 160.2C163.689 160.2 162.676 156.955 158.849 159.421C158.849 159.421 158.289 156.882 156.656 159.061C155.022 161.239 156.224 159.02 156.224 159.02" stroke="#000072" stroke-miterlimit="10"/>
<path d="M177.667 165.492C177.667 165.492 176.42 162.088 173.346 164.761C173.346 164.761 171.423 161.981 167.474 163.737C167.474 163.737 165.086 160.869 162.318 163.735C162.318 163.735 160.433 160.82 157.958 163.249C157.958 163.249 156.994 158.465 154.667 163.088" stroke="#000072" stroke-miterlimit="10"/>
<path d="M175.781 167.854C175.781 167.854 175.705 164.744 172.389 167.245C172.389 167.245 170.203 164.194 166.357 167.063C166.357 167.063 164.277 163.923 161.464 167.241C161.464 167.241 159.547 164.198 157.17 167.144C157.17 167.144 157.095 162.072 153.887 166.048" stroke="#000072" stroke-miterlimit="10"/>
<path d="M174.216 170.484C174.216 170.484 173.722 168.788 171.074 170.098C171.074 170.098 168.196 167.937 165.353 170.043C165.353 170.043 163.711 167.734 160.707 169.803C160.707 169.803 158.235 167.647 156.536 169.713C156.536 169.713 156.686 165.856 153.081 168.818" stroke="#000072" stroke-miterlimit="10"/>
<path d="M172.307 172.545C172.307 172.545 171.9 170.63 169.7 172.545C169.7 172.545 167.202 170.866 164.393 172.895C164.393 172.895 161.629 171.143 159.85 172.895C159.85 172.895 157.945 170.311 155.929 172.895C155.929 172.895 155.312 169.48 153.364 172.294" stroke="#000072" stroke-miterlimit="10"/>
<path d="M170.626 173.532C170.626 173.532 169.714 172.697 168.799 173.906C168.799 173.906 165.146 172.833 163.689 174.988C163.689 174.988 162.12 173.278 159.31 174.988C159.31 174.988 157.937 172.463 155.878 174.988C155.878 174.988 154.744 171.631 152.618 174.988" stroke="#000072" stroke-miterlimit="10"/>
<path d="M141.645 157.284L148.934 150.256L154.667 140.528L155.377 138.369L160.19 143.703L160.567 146.353L157.958 149.315L156.535 152.954L155.928 157.284V159.609L155.879 161.16C155.879 161.16 153.389 172.898 154.667 177.518L132.467 178.068L131.743 176.698L135.369 169.653L139.349 160.305L141.645 157.284Z" fill="#000072"/>
<path d="M137.571 111.716C137.571 111.716 119.805 146.203 117.81 155.832" stroke="#000072" stroke-miterlimit="10"/>
<path d="M131.903 114.366C131.903 114.366 114.536 149.14 116.072 152.082" stroke="#000072" stroke-miterlimit="10"/>
<path d="M148.485 112.466C148.485 112.466 135.281 148.441 129.14 156.848" stroke="#000072" stroke-miterlimit="10"/>
<path d="M124.66 119.602C124.66 119.602 128.678 115.348 129.671 118.899C129.671 118.899 132.369 114.925 134.567 117.647C134.567 117.647 139.802 113.43 140.641 118.148C140.641 118.148 145.4 114.396 145.797 119.602C145.797 119.602 147.525 119.113 147.483 123.486C147.483 123.486 149.036 126.883 148.585 128.203" stroke="#000072" stroke-miterlimit="10"/>
<path d="M131.279 115.622C131.279 115.622 134.425 112.78 136.221 114.366C136.221 114.366 140.454 110.073 142.662 113.644C142.662 113.644 146.848 112.904 146.922 116.647C146.922 116.647 148.617 118.775 148.485 119.603C148.485 119.603 146.545 132.644 142.834 140.394C142.834 140.394 137.913 157.281 132.903 158.633" stroke="#000072" stroke-miterlimit="10"/>
<path d="M124.059 122.223C124.059 122.223 126.574 119.082 128.066 122.223C128.066 122.223 131.754 118.666 131.904 122.223C131.904 122.223 137.726 119.407 138.494 122.94C138.494 122.94 142.793 119.875 143.662 125.116C143.662 125.116 147.795 123.57 146.484 128.903C146.484 128.903 148.777 128.303 148.345 131.656" stroke="#000072" stroke-miterlimit="10"/>
<path d="M121.792 126.149C121.792 126.149 125.447 122.733 125.907 126.753C125.907 126.753 129.447 123.306 129.64 127.663C129.64 127.663 135.964 124.416 135.82 128.902C135.82 128.902 140.237 127.494 141.03 131.716C141.03 131.716 144.846 130.443 145.243 134.006C145.243 134.006 148.057 133.831 147.794 136.105" stroke="#000072" stroke-miterlimit="10"/>
<path d="M119.851 130.498C119.851 130.498 122.667 125.794 124.379 130.47C124.379 130.47 126.657 128.414 127.691 131.327C127.691 131.327 133.231 129.478 133.716 133.592C133.716 133.592 137.465 131.236 139.334 134.957C139.334 134.957 143.682 134.239 144.315 136.805C144.315 136.805 146.298 136.188 147.009 138.369" stroke="#000072" stroke-miterlimit="10"/>
<path d="M118.74 133.223C118.74 133.223 121.347 131.86 122.123 134.957C122.123 134.957 124.823 132.595 125.907 135.429C125.907 135.429 130.326 133.738 131.743 137.283C131.743 137.283 136.531 135.467 138.087 138.811C138.087 138.811 141.334 137.947 143.105 140.15C143.105 140.15 145.259 139.341 145.553 141.541" stroke="#000072" stroke-miterlimit="10"/>
<path d="M116.874 136.862C116.874 136.862 120.487 134.176 120.481 138.681C120.481 138.681 123.62 136.459 124.058 139.233C124.058 139.233 128.944 137.816 130.152 141.541C130.152 141.541 134.22 138.576 136.228 143.102C136.228 143.102 140.414 140.861 141.363 144.555" stroke="#000072" stroke-miterlimit="10"/>
<path d="M115.54 141.174C115.54 141.174 118.332 138.162 119.265 141.541C119.265 141.541 121.835 139.364 122.784 142.454C122.784 142.454 127.281 141.206 128.8 144.554C128.8 144.554 132.836 142.821 134.801 146.263C134.801 146.263 138.291 144.038 140.093 147.426" stroke="#000072" stroke-miterlimit="10"/>
<path d="M114.285 144.019C114.285 144.019 117.147 142.248 118.048 144.555C118.048 144.555 120.554 142.822 121.519 145.397C121.519 145.397 126.435 144.385 127.198 147.427C127.198 147.427 131.685 146.143 133.428 149.172C133.428 149.172 136.837 147.964 138.811 150.361C138.811 150.361 139.61 149.882 139.609 152.082" stroke="#000072" stroke-miterlimit="10"/>
<path d="M113.194 146.695C113.194 146.695 116.252 145.126 116.872 147.138C116.872 147.138 120.154 145.822 120.418 148.073C120.418 148.073 125.983 146.813 126.313 150.096C126.313 150.096 131.24 148.62 131.968 152.08C131.968 152.08 136.239 150.322 137.183 154.221C137.183 154.221 138.849 153.431 139.332 155.832" stroke="#000072" stroke-miterlimit="10"/>
<path d="M60.5742 109.207C60.5742 109.207 76.4114 135.249 80.1123 152.082" stroke="#000072" stroke-miterlimit="10"/>
<path d="M69.6582 114.234C69.6582 114.234 81.4899 135.916 85.4181 150.266" stroke="#000072" stroke-miterlimit="10"/>
<path d="M52.9541 113.339C52.9541 113.339 66.7466 152.457 71.2632 155.508" stroke="#000072" stroke-miterlimit="10"/>
<path d="M52.4033 120.643C52.4033 120.643 63.5586 155.502 66.8862 157.285" stroke="#000072" stroke-miterlimit="10"/>
<path d="M53.9512 114.914C53.9512 114.914 54.2589 110.822 57.5915 113.192C57.5915 113.192 58.9193 110.26 62.6946 112.818C62.6946 112.818 63.697 111.249 66.8859 112.527" stroke="#000072" stroke-miterlimit="10"/>
<path d="M53.1514 122.938C53.1514 122.938 53.4501 120.058 55.8018 121.184C55.8018 121.184 56.5297 117.194 60.5767 119.983C60.5767 119.983 61.3277 115.786 65.7949 118.354C65.7949 118.354 68.6022 114.676 71.8354 118.354C71.8354 118.354 74.2012 116.156 75.929 118.354" stroke="#000072" stroke-miterlimit="10"/>
<path d="M52.4033 119.482C52.4033 119.482 53.4407 117.73 54.6868 118.356C54.6868 118.356 56.0302 114.546 58.9315 116.243C58.9315 116.243 60.77 113.481 64.0877 115.273C64.0877 115.273 67.542 113.682 69.6592 114.668" stroke="#000072" stroke-miterlimit="10"/>
<path d="M52.0254 128.398C52.0254 128.398 52.4242 126.461 54.6871 127.576C54.6871 127.576 54.9989 124.646 57.592 126.16C57.592 126.16 58.2572 122.139 62.8722 124.629C62.8722 124.629 63.3381 119.936 68.2361 122.939C68.2361 122.939 70.3902 119.341 73.6528 121.935C73.6528 121.935 74.0165 119.886 76.5164 121.629" stroke="#000072" stroke-miterlimit="10"/>
<path d="M52.4033 132.926C52.4033 132.926 53.4357 129.719 56.0708 131.657C56.0708 131.657 56.6157 128.237 59.3245 130.499C59.3245 130.499 61.3314 127.356 64.2705 128.903C64.2705 128.903 66.9149 124.639 70.3436 127.082C70.3436 127.082 72.8334 123.798 75.5213 125.737C75.5213 125.737 75.617 124.484 78.1609 125.116" stroke="#000072" stroke-miterlimit="10"/>
<path d="M53.167 136.105C53.167 136.105 53.8763 132.809 57.2158 134.958C57.2158 134.958 58.7665 132.703 60.7868 134.221C60.7868 134.221 62.5248 130.407 66.1155 132.601C66.1155 132.601 68.5259 129.128 72.3974 131.314C72.3974 131.314 74.1666 128.415 77.5748 130.076C77.5748 130.076 77.2855 128.372 79.8738 129.457" stroke="#000072" stroke-miterlimit="10"/>
<path d="M54.4775 139.324C54.4775 139.324 55.255 136.431 57.9505 137.883C57.9505 137.883 59.5565 134.856 61.9961 137.138C61.9961 137.138 63.0716 133.289 67.6358 135.92C67.6358 135.92 69.8137 132.56 73.8261 134.204C73.8261 134.204 75.4191 131.027 79.011 132.97C79.011 132.97 79.7576 131.393 81.571 132.654" stroke="#000072" stroke-miterlimit="10"/>
<path d="M54.6865 142.197C54.6865 142.197 55.7804 138.493 58.7682 139.325C58.7682 139.325 61.4528 137.879 62.806 139.203C62.806 139.203 66.6657 136.303 68.6476 138.369C68.6476 138.369 72.6358 135.216 75.0527 137.224C75.0527 137.224 77.7761 134.936 80.442 136.53C80.442 136.53 81.9027 134.918 83.707 136.105" stroke="#000072" stroke-miterlimit="10"/>
<path d="M85.4191 140.527C85.4191 140.527 82.6413 136.856 81.9966 140.31C81.9966 140.31 77.2548 137.468 76.8077 141.54C76.8077 141.54 72.1498 138.041 70.5116 142.612C70.5116 142.612 65.7487 139.993 64.5381 143.681C64.5381 143.681 61.5005 140.503 61.0312 144.554C61.0312 144.554 59.4453 143.948 59.168 145.52" stroke="#000072" stroke-miterlimit="10"/>
<path d="M86.6728 143.683C86.6728 143.683 84.1045 140.846 83.4213 144.062C83.4213 144.062 79.6462 141.578 78.0494 144.937C78.0494 144.937 73.9782 142.879 72.3962 146.697C72.3962 146.697 68.0412 144.268 66.8858 148.455C66.8858 148.455 63.8949 147.244 62.8715 150.266C62.8715 150.266 61.3338 149.859 60.5742 152.082" stroke="#000072" stroke-miterlimit="10"/>
<path d="M87.27 146.113C87.27 146.113 85.3318 142.61 84.4265 146.972C84.4265 146.972 82.0212 145.476 79.2048 148.549C79.2048 148.549 75.6024 147.316 73.625 149.701C73.625 149.701 70.7718 148.916 68.7015 151.009C68.5878 151.124 68.4765 151.248 68.3682 151.381" stroke="#000072" stroke-miterlimit="10"/>
<path d="M68.4752 151.249C68.4752 151.249 65.8144 151.007 64.4322 153.489C64.4322 153.489 62.5122 153.571 61.6257 155.834C60.7392 158.097 61.2097 155.509 61.2097 155.509" stroke="#000072" stroke-miterlimit="10"/>
<path fill-rule="evenodd" clip-rule="evenodd" d="M100.242 17.1946C130.805 17.1946 154.316 49.0155 154.316 75.586C154.316 102.157 111.222 112.894 100.242 113.418C89.2615 113.942 43.9277 101.378 43.9277 74.8068C43.9277 48.2358 69.6794 17.1946 100.242 17.1946Z" fill="#FF850B"/>
<path d="M100.243 18.4848C69.7639 18.4848 45.2203 49.2953 45.2203 74.8051C45.2203 81.4385 48.234 87.6765 54.1781 93.3458C67.4182 105.974 91.5749 112.139 99.562 112.139C99.7815 112.139 99.9871 112.135 100.182 112.125C105.969 111.849 119.3 108.87 130.82 103.112C140.95 98.0484 153.025 89.1625 153.025 75.5841C153.025 49.179 129.969 18.4848 100.243 18.4848ZM99.5947 114.723C91.0266 114.723 66.3339 108.511 52.3956 95.2163C45.9203 89.0401 42.6367 82.1728 42.6367 74.8051C42.6367 61.5051 49.007 46.6833 59.6771 35.1568C71.0055 22.9193 85.7912 15.9006 100.243 15.9006C114.785 15.9006 128.805 22.8902 139.72 35.5818C149.669 47.1498 155.609 62.1039 155.609 75.5841C155.609 87.377 147.436 97.6953 131.975 105.424C120.118 111.35 106.317 114.42 100.304 114.707C100.083 114.717 99.845 114.723 99.5947 114.723Z" fill="#000072"/>
<g opacity="0.5">
<g opacity="0.5">
<path opacity="0.5" fill-rule="evenodd" clip-rule="evenodd" d="M100.242 17.1952C119.026 17.1952 135.144 29.2168 144.779 44.65C144.879 45.1487 144.976 45.6495 145.06 46.1543C136.264 33.2553 122.548 24.7496 107.358 22.4551C108.332 22.8232 108.897 23.2603 108.897 23.7295C108.897 25.041 104.481 26.1041 99.0343 26.1041C93.5881 26.1041 89.1725 25.041 89.1725 23.7295C89.1725 23.2603 89.7362 22.8232 90.7107 22.4551C75.5203 24.7501 61.8059 33.2563 53.0093 46.1543L53.0579 45.8824C63.2011 29.8327 80.7418 17.1952 100.242 17.1952Z" fill="white"/>
</g>
</g>
<path fill-rule="evenodd" clip-rule="evenodd" d="M152.864 83.7502C145.265 104.385 110.019 112.952 100.242 113.418C90.5641 113.88 54.2096 104.173 45.7158 83.6745C46.367 72.5093 52.0375 69.4577 62.5242 74.9139C66.8366 77.1573 71.2237 79.4973 74.6997 77.7156C94.5416 67.5423 106.657 69.4602 120.238 77.7156C126.589 81.5764 132.787 75.8173 136.676 74.0616C149.06 68.4677 154.743 72.38 152.864 83.7502Z" fill="white"/>
<g opacity="0.300003">
<g opacity="0.300003">
<path opacity="0.300003" fill-rule="evenodd" clip-rule="evenodd" d="M154.081 70.9435C154.234 72.5028 154.316 74.0521 154.316 75.5835C154.316 76.5624 154.251 77.5164 154.138 78.4528L154.149 78.1728C152.64 95.9051 116.944 109.444 97.7408 110.538C81.7108 111.45 49.6949 94.189 44.3116 78.1728C44.3216 78.5049 44.3387 78.8363 44.3537 79.1674C44.0794 77.7567 43.9277 76.304 43.9277 74.8043C43.9277 73.6105 43.9818 72.4077 44.0834 71.1984L44.167 70.9395C56.6809 88.9371 77.2096 99.6682 99.1259 99.6682C121.04 99.6682 141.567 88.9376 154.081 70.9435Z" fill="#000072"/>
</g>
</g>
<path fill-rule="evenodd" clip-rule="evenodd" d="M80.469 62.4562C78.7601 61.694 77.0105 60.4166 75.223 58.6265C72.1239 58.7671 69.6445 62.0787 69.6445 66.1427C69.6445 70.2965 72.2335 73.6641 75.4272 73.6641C78.6214 73.6641 81.2104 70.2965 81.2104 66.1427C81.2104 64.8033 80.9411 63.5459 80.469 62.4562Z" fill="#000072"/>
<path d="M129.001 55.3726C126.915 58.1443 124.864 60.2875 122.849 61.8023C119.884 64.0306 116.675 64.4207 116.319 61.9665C117.914 61.7838 119.576 61.0422 121.305 59.7432C125.565 56.5404 126.897 54.4783 129.001 55.3726Z" fill="#000072"/>
<path fill-rule="evenodd" clip-rule="evenodd" d="M119.279 62.4543C120.988 61.6921 122.738 60.4147 124.526 58.6245C127.625 58.7652 130.104 62.0767 130.104 66.1408C130.104 70.2946 127.516 73.6621 124.321 73.6621C121.127 73.6621 118.538 70.2946 118.538 66.1408C118.538 64.8013 118.807 63.5439 119.279 62.4543Z" fill="#000072"/>
<path fill-rule="evenodd" clip-rule="evenodd" d="M121.93 64.2253C120.992 64.2253 120.232 65.0356 120.232 66.0345C120.232 67.0336 120.992 67.8438 121.93 67.8438C122.868 67.8438 123.628 67.0336 123.628 66.0345C123.628 65.0356 122.868 64.2253 121.93 64.2253Z" fill="white"/>
<path fill-rule="evenodd" clip-rule="evenodd" d="M99.1229 67.4617C103.259 67.4617 106.611 69.6975 106.611 72.4552C106.611 75.2134 103.259 77.4492 99.1229 77.4492C94.9872 77.4492 91.6348 75.2134 91.6348 72.4552C91.6348 69.6975 94.9872 67.4617 99.1229 67.4617Z" fill="#000072"/>
<path d="M106.283 83.5664C103.647 83.5664 101.097 82.5859 99.1411 80.8338C96.9562 82.8242 93.9443 83.7501 90.984 83.2793C87.5452 82.7327 84.6289 80.375 83.3725 77.1263C83.1152 76.4606 83.4459 75.7125 84.1114 75.4549C84.7762 75.1977 85.5243 75.5285 85.782 76.1939C86.7073 78.5874 88.8561 80.3245 91.3895 80.7271C93.9243 81.13 96.5048 80.1452 98.1266 78.1576C98.3688 77.8607 98.7304 77.6867 99.1133 77.6825C99.4995 77.683 99.8611 77.8445 100.11 78.1359C101.802 80.1187 104.357 81.172 106.957 80.9539C109.553 80.7361 111.901 79.2703 113.238 77.0332C113.604 76.4204 114.399 76.2206 115.01 76.5873C115.622 76.9533 115.822 77.7468 115.456 78.3592C113.693 81.309 110.597 83.2418 107.173 83.529C106.875 83.5541 106.579 83.5664 106.283 83.5664Z" fill="#000072"/>
<path fill-rule="evenodd" clip-rule="evenodd" d="M99.128 78.9745C101.821 81.5349 104.466 82.624 107.065 82.2415C107.708 99.1174 90.6052 98.43 91.1874 82.0032C94.3736 82.4077 97.0196 81.3987 99.128 78.9745Z" fill="#000072"/>
<path d="M92.4732 83.3836C92.6013 87.6836 94.1259 91.0642 96.6654 92.5682C98.343 93.5615 100.239 93.5755 101.867 92.6055C104.298 91.1571 105.696 87.9152 105.786 83.6048C103.588 83.5344 101.38 82.583 99.1932 80.7636C97.3109 82.5061 95.079 83.3838 92.5318 83.3838C92.5126 83.3838 92.4929 83.3838 92.4732 83.3836ZM99.3202 95.9023C97.9631 95.9025 96.599 95.532 95.3493 94.7919C91.6718 92.6139 89.6842 87.9362 89.8962 81.9583L89.9465 80.5442L91.3496 80.7224C94.108 81.0719 96.3301 80.223 98.153 78.1274L99.039 77.1087L100.017 78.039C102.429 80.332 104.675 81.2893 106.877 80.964L108.301 80.7545L108.356 82.1932C108.582 88.1303 106.698 92.7347 103.189 94.8259C101.984 95.5436 100.656 95.9023 99.3202 95.9023Z" fill="#000072"/>
<path fill-rule="evenodd" clip-rule="evenodd" d="M99.2702 88.3075C96.9706 88.3075 94.8105 89.4087 93.46 91.2689C96.5691 95.698 102.082 95.7706 105.052 91.2313C103.7 89.3936 101.553 88.3075 99.2702 88.3075Z" fill="#FF0066"/>
<path d="M95.1318 91.2994C96.3292 92.6199 97.8355 93.3359 99.3984 93.3213C100.909 93.2967 102.302 92.5835 103.399 91.2923C102.306 90.2201 100.819 89.6003 99.2692 89.6003C97.713 89.6003 96.2246 90.2223 95.1318 91.2994ZM99.318 95.9062C96.6577 95.9062 94.1429 94.4924 92.4021 92.0122L91.8721 91.2571L92.4141 90.5105C94.0025 88.3224 96.5651 87.0161 99.2692 87.0161C101.951 87.0161 104.502 88.3057 106.092 90.4661L106.623 91.1889L106.132 91.9399C104.511 94.417 102.072 95.8623 99.4405 95.9052C99.3997 95.9059 99.3587 95.9062 99.318 95.9062Z" fill="#000072"/>
<path fill-rule="evenodd" clip-rule="evenodd" d="M148.027 48.5469C139.731 34.8342 129.785 25.5502 118.188 20.6964C140.937 -11.1896 150.883 -1.90609 148.027 48.5469Z" fill="#FF850B"/>
<path d="M120.171 20.1547C130.352 24.8028 139.339 32.9505 146.942 44.4212C148.33 13.3334 144.114 5.06 140.237 3.69579C137.277 2.65542 131.41 4.72428 120.171 20.1547ZM149.08 52.7852L146.921 49.2165C138.809 35.8065 128.973 26.6122 117.689 21.8891L116.196 21.2642L117.136 19.9464C127.542 5.36097 135.376 -0.754356 141.094 1.25798C148.387 3.82409 151 18.8738 149.316 48.6206L149.08 52.7852Z" fill="#000072"/>
<path fill-rule="evenodd" clip-rule="evenodd" d="M116.214 50.2165C118.127 49.4318 120.056 49.7163 120.522 50.852C120.987 51.9877 119.813 53.5451 117.901 54.3303C115.987 55.1149 114.059 54.83 113.593 53.6943C113.128 52.5586 114.301 51.0012 116.214 50.2165Z" fill="white"/>
<path fill-rule="evenodd" clip-rule="evenodd" d="M82.8811 50.1388C80.9679 49.3536 79.0391 49.6385 78.5736 50.7742C78.108 51.91 79.2815 53.4673 81.1946 54.2519C83.1073 55.0366 85.0361 54.7522 85.5017 53.6165C85.9672 52.4808 84.7938 50.9234 82.8811 50.1388Z" fill="white"/>
<path fill-rule="evenodd" clip-rule="evenodd" d="M76.279 64.2253C75.3409 64.2253 74.5811 65.0356 74.5811 66.0345C74.5811 67.0336 75.3409 67.8438 76.279 67.8438C77.2166 67.8438 77.9764 67.0336 77.9764 66.0345C77.9764 65.0356 77.2166 64.2253 76.279 64.2253Z" fill="white"/>
<path fill-rule="evenodd" clip-rule="evenodd" d="M51.0912 49.1992C59.3863 35.4861 69.3322 26.2026 80.9291 21.3483C58.1809 -10.5377 48.2349 -1.25372 51.0912 49.1992Z" fill="#FF850B"/>
<path d="M60.2619 4.12316C59.7427 4.12316 59.2846 4.20723 58.8806 4.34948C55.0031 5.71376 50.7878 13.9869 52.1751 45.0748C59.7779 33.6044 68.7645 25.4568 78.946 20.8081C69.2418 7.48503 63.542 4.12316 60.2619 4.12316ZM50.0376 53.4395L49.8017 49.2745C48.1178 19.5276 50.7302 4.47786 58.0234 1.91154C63.7372 -0.0983543 71.5742 6.01345 81.9806 20.5998L82.9208 21.9176L81.4278 22.5425C70.1429 27.2661 60.308 36.4606 52.1965 49.8705L50.0376 53.4395Z" fill="#000072"/>
<g opacity="0.649994">
<g opacity="0.649994">
<path opacity="0.649994" fill-rule="evenodd" clip-rule="evenodd" d="M78.0816 22.6504C79.0202 22.1862 79.9708 21.753 80.9323 21.3499C66.8336 1.58764 57.655 -2.35282 53.3911 9.51264C57.9319 1.169 66.1613 5.54766 78.0801 22.6494L78.0816 22.6504Z" fill="white"/>
</g>
</g>
<path fill-rule="evenodd" clip-rule="evenodd" d="M57.3033 39.9062C61.347 34.9033 65.9298 30.5727 71.0522 26.9157C59.5694 4.54754 54.9861 8.87757 57.3033 39.9062Z" fill="#000072"/>
<path d="M60.2579 14.1527C60.2014 14.1527 60.1628 14.1603 60.1403 14.1666C60.002 14.2056 58.7747 14.7114 58.2496 20.4083C57.8957 24.2467 57.9376 29.6971 58.3724 36.639C61.7112 32.8604 65.4048 29.4694 69.3936 26.5228C63.3516 14.9706 60.8452 14.1527 60.2579 14.1527ZM56.2574 43.2539L56.0149 40.0019C54.2516 16.391 56.7567 12.435 59.44 11.6791C62.6488 10.7729 66.4667 15.1547 72.2009 26.3248L72.711 27.3183L71.8021 27.9669C66.8005 31.5375 62.2602 35.8277 58.3072 40.7181L56.2574 43.2539Z" fill="#000072"/>
<g opacity="0.300003">
<g opacity="0.300003">
<path opacity="0.300003" fill-rule="evenodd" clip-rule="evenodd" d="M58.7918 13.6061C54.6014 16.7409 51.8948 25.2221 50.6724 39.0489C50.746 42.2242 50.8847 45.6078 51.0879 49.2012C51.7076 48.08 52.3628 46.9719 53.0552 45.8812L53.0066 46.1531C56.354 41.0459 59.9546 36.6183 63.8075 32.8696C61.5545 34.9953 59.4315 37.2838 57.4382 39.7345C57.3991 39.7825 57.3601 39.8301 57.3211 39.8792C57.3175 39.8831 57.3141 39.8877 57.3101 39.8932C57.3065 39.8972 57.3036 39.9012 57.3 39.9052C56.1773 24.8711 56.6748 16.1049 58.7918 13.6061ZM140.319 12.9527C144.51 16.0878 147.216 24.5686 148.438 38.3954C148.365 41.5707 148.226 44.9548 148.023 48.5477C147.403 47.4265 146.748 46.3188 146.055 45.2277L146.104 45.4996C142.757 40.3924 139.156 35.9647 135.303 32.2167C137.557 34.3423 139.679 36.6308 141.672 39.0815C141.711 39.1291 141.751 39.1771 141.79 39.2257C141.793 39.2302 141.797 39.2347 141.8 39.2397C141.804 39.2442 141.807 39.2477 141.811 39.2523C142.934 24.2181 142.436 15.4514 140.319 12.9527Z" fill="#000072"/>
</g>
</g>
<g opacity="0.649994">
<g opacity="0.649994">
<path opacity="0.649994" fill-rule="evenodd" clip-rule="evenodd" d="M121.042 21.998C120.104 21.5338 119.153 21.1007 118.191 20.6981C132.29 0.935789 141.469 -3.00517 145.733 8.86029C141.192 0.516651 132.962 4.89574 121.044 21.9975L121.042 21.998Z" fill="white"/>
</g>
</g>
<path fill-rule="evenodd" clip-rule="evenodd" d="M141.812 39.2539C137.769 34.2504 133.186 29.9198 128.063 26.2628C139.546 3.89465 144.13 8.22512 141.812 39.2539Z" fill="#000072"/>
<path d="M129.723 25.8696C133.712 28.8167 137.406 32.2081 140.743 35.9862C141.178 29.0441 141.22 23.5939 140.866 19.7553C140.341 14.0584 139.114 13.5524 138.976 13.5136C138.721 13.4428 136.347 13.2042 129.723 25.8696ZM142.858 42.6016L140.809 40.0654C136.857 35.1755 132.317 30.8852 127.314 27.3137L126.405 26.6651L126.915 25.6717C132.649 14.5024 136.464 10.1208 139.676 11.0261C142.359 11.782 144.865 15.7381 143.101 39.3493L142.858 42.6016Z" fill="#000072"/>
<path d="M60.2605 4.12135C59.7413 4.12135 59.2832 4.20542 58.8792 4.34768C55.0016 5.71196 50.786 13.9853 52.1733 45.0732C59.7765 33.6026 68.763 25.4548 78.9445 20.8063C69.2404 7.48323 63.5406 4.12135 60.2605 4.12135ZM50.0354 53.4375L49.7996 49.2727C48.116 19.5257 50.7288 4.47583 58.0219 1.90973C63.7358 -0.100163 71.5727 6.01164 81.9792 20.598L82.9193 21.9158L81.4263 22.5407C70.1415 27.2643 60.3065 36.4588 52.1944 49.8686L50.0354 53.4375Z" fill="#000072"/>
<path d="M100.243 18.4848C69.7639 18.4848 45.2203 49.2953 45.2203 74.8051C45.2203 81.4385 48.234 87.6765 54.1781 93.3458C67.4182 105.974 91.5749 112.139 99.562 112.139C99.7815 112.139 99.9871 112.135 100.182 112.125C105.969 111.849 119.3 108.87 130.82 103.112C140.95 98.0484 153.025 89.1625 153.025 75.5841C153.025 49.179 129.969 18.4848 100.243 18.4848ZM99.5947 114.723C91.0266 114.723 66.3339 108.511 52.3956 95.2163C45.9203 89.0401 42.6367 82.1728 42.6367 74.8051C42.6367 61.5051 49.007 46.6833 59.6771 35.1568C71.0055 22.9193 85.7912 15.9006 100.243 15.9006C114.785 15.9006 128.805 22.8902 139.72 35.5818C149.669 47.1498 155.609 62.1039 155.609 75.5841C155.609 87.377 147.436 97.6953 131.975 105.424C120.118 111.35 106.317 114.42 100.304 114.707C100.083 114.717 99.845 114.723 99.5947 114.723Z" fill="#000072"/>
<g opacity="0.559998">
<g opacity="0.559998">
<path opacity="0.559998" fill-rule="evenodd" clip-rule="evenodd" d="M101.56 69.4628C102.69 69.7607 103.525 70.3036 103.427 70.6761C103.329 71.0481 102.334 71.1087 101.205 70.8108C100.076 70.5133 99.2398 69.9701 99.3379 69.5975C99.436 69.2255 100.431 69.1648 101.56 69.4628Z" fill="white"/>
</g>
</g>
<path d="M71.6855 55.3726C73.7719 58.1443 75.8228 60.2875 77.8381 61.8023C80.8031 64.0306 84.0123 64.4207 84.3677 61.9665C82.7728 61.7838 81.111 61.0422 79.3819 59.7432C75.122 56.5404 73.7895 54.4783 71.6855 55.3726Z" fill="#000072"/>
<path d="M120.171 20.1547C130.352 24.8028 139.339 32.9505 146.942 44.4212C148.33 13.3334 144.114 5.06 140.237 3.69579C137.277 2.65542 131.41 4.72428 120.171 20.1547ZM149.08 52.7852L146.921 49.2165C138.809 35.8065 128.973 26.6122 117.689 21.8891L116.196 21.2642L117.136 19.9464C127.542 5.36097 135.376 -0.754356 141.094 1.25798C148.387 3.82409 151 18.8738 149.316 48.6206L149.08 52.7852Z" fill="#000072"/>
</svg>
