<svg width="108" height="109" viewBox="0 0 108 109" fill="none" xmlns="http://www.w3.org/2000/svg">
<path d="M0 15.0078C0 6.72354 6.71573 0.0078125 15 0.0078125H93C101.284 0.0078125 108 6.72354 108 15.0078V93.0078C108 101.292 101.284 108.008 93 108.008H15C6.71573 108.008 0 101.292 0 93.0078V15.0078Z" fill="#E11D2E"/>
<path d="M83.0002 41.198C80.8305 42.0765 78.4997 42.6701 76.0494 42.9384C78.5776 41.5561 80.4691 39.3804 81.3709 36.8175C78.9956 38.1067 76.3958 39.0142 73.6848 39.5004C71.8617 37.7218 69.4469 36.5429 66.8154 36.1467C64.1838 35.7505 61.4828 36.1593 59.1316 37.3096C56.7804 38.4598 54.9105 40.2872 53.8124 42.5079C52.7142 44.7287 52.4492 47.2186 53.0584 49.5911C48.2453 49.3703 43.5368 48.2272 39.2385 46.236C34.9401 44.2449 31.148 41.4501 28.1083 38.0331C27.0689 39.6714 26.4713 41.5708 26.4713 43.5937C26.4701 45.4147 26.9609 47.2079 27.9001 48.8141C28.8393 50.4203 30.1978 51.7898 31.8552 52.8011C29.9331 52.7453 28.0534 52.2707 26.3725 51.4169V51.5594C26.3723 54.1135 27.3392 56.589 29.1091 58.5659C30.8791 60.5427 33.343 61.8992 36.0829 62.4051C34.2998 62.846 32.4303 62.911 30.6158 62.595C31.3888 64.7927 32.8946 66.7145 34.9223 68.0913C36.9501 69.4682 39.3982 70.2311 41.9241 70.2735C37.6363 73.3491 32.3408 75.0175 26.8896 75.0101C25.924 75.0104 24.9592 74.9589 24.0002 74.8558C29.5335 78.1066 35.9746 79.8319 42.553 79.8252C64.8215 79.8252 76.9952 62.9725 76.9952 48.3565C76.9952 47.8816 76.9822 47.402 76.9588 46.9272C79.3267 45.3625 81.3707 43.4249 82.995 41.2052L83.0002 41.198Z" fill="white"/>
</svg>
